<svg width="50" height="30" viewBox="0 0 50 30" fill="none" xmlns="http://www.w3.org/2000/svg">
<path d="M40.2144 9.45062C39.6308 9.45062 39.0591 9.50219 38.5033 9.60062L37.3026 5.46219L36.3608 2.08354H40.2144C41.3202 2.08354 41.8153 2.73479 41.8153 3.3801C41.8153 3.74688 41.6547 4.09187 41.363 4.35135C40.9646 4.70594 40.3449 4.89344 39.571 4.89344V6.97677C41.204 6.97677 42.2 6.39531 42.748 5.9076C43.4793 5.25677 43.8986 4.33552 43.8986 3.38C43.8986 2.48396 43.5468 1.64635 42.9078 1.02135C42.2248 0.353229 41.2933 0 40.2144 0H33.6173L34.9277 4.70104H19.2529L18.7246 3.28437H22.1962V1.20104H13.8062V3.28437H16.501L17.3705 5.61583L14.2021 10.5052C12.8746 9.83094 11.3739 9.45031 9.78573 9.45031C4.3899 9.45063 0 13.8404 0 19.2361C0 24.6319 4.3899 29.0218 9.78562 29.0218C14.8295 29.0218 18.9939 25.1856 19.5156 20.2778H20.8162C21.2456 21.4826 22.3974 22.3476 23.7478 22.3476C25.4634 22.3476 26.8592 20.9519 26.8592 19.2361C26.8592 18.6458 26.6939 18.0933 26.4072 17.6226L35.8036 7.77198L36.503 10.1824C32.9424 11.6474 30.4289 15.1534 30.4289 19.2362C30.4289 24.6321 34.8186 29.0219 40.2144 29.0219C45.6101 29.0219 50 24.632 50 19.2361C50 13.8403 45.6101 9.45062 40.2144 9.45062ZM33.8661 6.78458L24.786 16.3035C24.4611 16.1882 24.1118 16.1248 23.7477 16.1248C23.6699 16.1248 23.5929 16.1286 23.5165 16.1343L20.0297 6.78458H33.8661V6.78458ZM18.2772 8.0476L21.6083 16.9801C21.2565 17.314 20.9822 17.7285 20.8161 18.1945H19.5156C19.2353 15.5576 17.9034 13.2305 15.9485 11.6411L18.2772 8.0476ZM17.4154 18.1945H11.702L14.8069 13.403C16.1979 14.6022 17.1564 16.2881 17.4154 18.1945ZM9.78562 26.9385C5.53854 26.9385 2.08333 23.4832 2.08333 19.2361C2.08333 14.9891 5.53854 11.534 9.78562 11.534C10.9562 11.534 12.066 11.7976 13.0605 12.2669L7.86927 20.2778H17.4153C16.9051 24.0337 13.6792 26.9385 9.78562 26.9385ZM23.7478 20.2643C23.1809 20.2643 22.7197 19.803 22.7197 19.2361C22.7197 18.6694 23.1809 18.2081 23.7478 18.2081C24.3146 18.2081 24.7758 18.6694 24.7758 19.2361C24.7758 19.8031 24.3146 20.2643 23.7478 20.2643ZM40.2144 26.9385C35.9674 26.9385 32.5122 23.4832 32.5122 19.2362C32.5122 16.102 34.3951 13.4008 37.0882 12.1996L39.2141 19.5265L41.2148 18.946L39.0884 11.6172C39.4561 11.563 39.8319 11.5341 40.2145 11.5341C44.4616 11.5341 47.9168 14.9893 47.9168 19.2362C47.9168 23.4832 44.4615 26.9385 40.2144 26.9385Z" fill="#3B9CF7"/>
</svg>
