<svg width="50" height="45" viewBox="0 0 50 45" fill="none" xmlns="http://www.w3.org/2000/svg">
<path d="M49.1219 17.1113L42.8657 12.4204V4.91825C42.8657 4.07345 42.1185 3.38604 41.2003 3.38604H37.2637C36.3455 3.38604 35.5983 4.07345 35.5983 4.91825V6.971L27.2388 0.703006C26.6341 0.24975 25.8371 0 24.9947 0C24.1556 0 23.3624 0.248218 22.761 0.699105L0.878154 17.1112C-0.116117 17.8565 -0.0564641 18.5057 0.0675359 18.8264C0.191233 19.1464 0.589577 19.6832 1.86682 19.6832H4.86326V41.266C4.86326 42.8063 6.22166 44.0592 7.89134 44.0592H17.3541C19.0097 44.0592 20.3065 42.8322 20.3065 41.266V32.4153C20.3065 31.6567 21.0643 30.966 21.8962 30.966H28.2552C29.0483 30.966 29.6935 31.6162 29.6935 32.4153V41.266C29.6935 42.7801 31.1149 44.0592 32.7973 44.0592H42.1087C43.7784 44.0592 45.1368 42.8062 45.1368 41.266V19.6832H48.1332C49.4104 19.6832 49.8086 19.1464 49.9325 18.8264C50.0565 18.5057 50.1161 17.8565 49.1219 17.1113Z" fill="black"/>
</svg>
