<svg width="198" height="250" viewBox="0 0 198 250" fill="none" xmlns="http://www.w3.org/2000/svg">
<path d="M74.7919 120.583C78.6005 148.846 71.623 164.299 51.9181 167.549C30.0214 171.16 20.9991 154.801 17.1904 126.538C12.0675 88.5065 24.1074 64.8527 41.2746 63.3291C56.8984 61.9454 70.9788 92.3251 74.7919 120.583Z" stroke="black" stroke-width="32" stroke-miterlimit="10"/>
<path d="M85.016 199.023C86.3691 215.068 78.5918 230.044 66.8588 232.609C55.0134 235.193 41.4777 224.716 38.7195 208.892C35.9614 193.068 46.3931 192.229 59.1766 189.505C71.9601 186.781 83.3818 179.67 85.016 199.023Z" stroke="black" stroke-width="32" stroke-miterlimit="10"/>
<path d="M123.211 74.293C119.402 102.556 126.38 118.009 146.08 121.258C167.981 124.87 176.999 108.511 180.808 80.2474C185.935 42.2114 173.891 18.4274 156.728 17.0388C140.992 15.766 127.024 46.0299 123.211 74.293Z" stroke="black" stroke-width="32" stroke-miterlimit="10"/>
<path d="M112.987 152.737C111.634 168.778 119.411 183.758 131.144 186.323C142.989 188.907 156.525 178.431 159.283 162.607C162.041 146.783 151.61 145.944 138.826 143.215C126.043 140.486 114.621 133.379 112.987 152.737Z" stroke="black" stroke-width="32" stroke-miterlimit="10"/>
</svg>
