<svg width="24" height="7" viewBox="0 0 24 7" fill="none" xmlns="http://www.w3.org/2000/svg">
<path d="M22.7666 1.12463H6.94936C6.76846 1.12463 6.62183 1.01857 6.62183 0.887723C6.62183 0.756874 6.76846 0.650818 6.94936 0.650818H22.7666C22.9475 0.650818 23.0941 0.756874 23.0941 0.887723C23.0941 1.01857 22.9475 1.12463 22.7666 1.12463Z" fill="black"/>
<path d="M22.7666 6.23693H6.94936C6.76846 6.23693 6.62183 6.13088 6.62183 6.00003C6.62183 5.86918 6.76846 5.76312 6.94936 5.76312H22.7666C22.9475 5.76312 23.0941 5.86918 23.0941 6.00003C23.0941 6.13088 22.9475 6.23693 22.7666 6.23693Z" fill="black"/>
<path d="M1.22744 1.77499C0.550635 1.77499 0 1.37697 0 0.887725C0 0.398233 0.550635 0 1.22744 0C1.90503 0 2.4563 0.398198 2.4563 0.887725C2.4563 1.37697 1.90503 1.77499 1.22744 1.77499ZM1.22744 0.473811C0.911865 0.473811 0.655127 0.659507 0.655127 0.887725C0.655127 1.1157 0.911865 1.30118 1.22744 1.30118C1.5438 1.30118 1.80117 1.1157 1.80117 0.887725C1.80117 0.659507 1.5438 0.473811 1.22744 0.473811Z" fill="black"/>
<path d="M1.22744 6.88744C0.550635 6.88744 0 6.48935 0 5.99997C0 5.51058 0.550635 5.11249 1.22744 5.11249C1.90503 5.11249 2.4563 5.51058 2.4563 5.99997C2.4563 6.48935 1.90503 6.88744 1.22744 6.88744ZM1.22744 5.58633C0.911865 5.58633 0.655127 5.77192 0.655127 6C0.655127 6.22808 0.911865 6.41367 1.22744 6.41367C1.5438 6.41367 1.80117 6.22808 1.80117 6C1.80117 5.77192 1.5438 5.58633 1.22744 5.58633Z" fill="black"/>
</svg>
