<svg width="41" height="39" viewBox="0 0 41 39" fill="none" xmlns="http://www.w3.org/2000/svg">
<path d="M20.5 0C9.1963 0 0 7.34839 0 16.3808C0 21.7033 3.17062 26.6149 8.53506 29.6897C7.7908 33.0842 6.12283 35.4662 6.10457 35.492L4.28109 38.0402L7.4438 37.6448C7.80812 37.599 16.2931 36.5019 22.3408 32.6959C27.3072 32.3432 31.9199 30.5657 35.3661 27.6695C38.9992 24.6161 41 20.6071 41 16.381C41 7.34839 31.8037 0 20.5 0ZM21.7955 29.9694L21.4098 29.9909L21.0889 30.2012C17.5721 32.5061 12.864 33.7848 9.90215 34.41C10.5235 33.055 11.1764 31.2536 11.5023 29.1739L11.6547 28.2018L10.762 27.7453C5.79165 25.2042 2.82418 20.9561 2.82418 16.3808C2.82418 8.86785 10.7536 2.7553 20.5 2.7553C30.2464 2.7553 38.1758 8.86766 38.1758 16.3808C38.1758 23.4862 30.9807 29.4549 21.7955 29.9694Z" fill="black"/>
</svg>
