<svg width="50" height="50" viewBox="0 0 50 50" fill="none" xmlns="http://www.w3.org/2000/svg">
<path d="M42.6777 7.32227C37.9558 2.60052 31.6777 0 25 0C18.3223 0 12.0442 2.60052 7.32227 7.32227C2.60052 12.0442 0 18.3223 0 25C0 31.6777 2.60052 37.9558 7.32227 42.6777C12.0442 47.3995 18.3223 50 25 50C31.6777 50 37.9558 47.3995 42.6777 42.6777C47.3995 37.9558 50 31.6777 50 25C50 18.3223 47.3995 12.0442 42.6777 7.32227ZM25 46.9072C12.9203 46.9072 3.09278 37.0797 3.09278 25C3.09278 12.9203 12.9203 3.09278 25 3.09278C37.0797 3.09278 46.9072 12.9203 46.9072 25C46.9072 37.0797 37.0797 46.9072 25 46.9072Z" fill="#CFF0B4"/>
<path d="M18.6662 34.6985L35.4575 25L18.6662 15.3016V34.6985Z" fill="#CFF0B4"/>
</svg>
