<svg width="75" height="75" viewBox="0 0 75 75" fill="none" xmlns="http://www.w3.org/2000/svg">
<path d="M75 37.5C75 58.1855 58.1855 75 37.5 75C16.8145 75 0 58.1855 0 37.5C0 16.8145 16.8145 0 37.5 0C58.1855 0 75 16.8145 75 37.5Z" fill="#1B78CE"/>
<path d="M37.5 0C58.1855 0 75 16.8145 75 37.5C75 58.1855 58.1855 75 37.5 75" fill="#1B78CE"/>
<path d="M11.0081 11.008C25.6452 -3.62906 49.3548 -3.62906 63.9919 11.008C78.629 25.6451 78.629 49.3548 63.9919 63.9919" fill="#1B78CE"/>
<path d="M53.3467 38.7096H21.6532C20.6855 38.7096 19.8387 38.4677 19.8387 37.5C19.8387 36.5322 20.6855 36.2903 21.6532 36.2903H53.3467C54.3145 36.2903 55.1613 36.5322 55.1613 37.5C55.1613 38.4677 54.3145 38.7096 53.3467 38.7096Z" fill="#EEFFFF"/>
<path d="M37.5 55.0403C36.5322 55.0403 36.2903 54.3145 36.2903 53.2258V21.6532C36.2903 20.6855 36.5322 19.8387 37.5 19.8387C38.4677 19.8387 38.7096 20.5645 38.7096 21.6532V53.3467C38.7096 54.3145 38.4677 55.0403 37.5 55.0403Z" fill="#EEFFFF"/>
</svg>
