<svg width="26" height="33" viewBox="0 0 26 33" fill="none" xmlns="http://www.w3.org/2000/svg">
<path fill-rule="evenodd" clip-rule="evenodd" d="M12.6927 31.498C6.38591 31.498 1 30.5884 1 26.9455C1 23.3027 6.35175 19.9397 12.6927 19.9397C18.9997 19.9397 24.3855 23.2701 24.3855 26.913C24.3855 30.5544 19.0338 31.498 12.6927 31.498Z" stroke="#130F26" stroke-width="1.5" stroke-linecap="round" stroke-linejoin="round"/>
<path fill-rule="evenodd" clip-rule="evenodd" d="M12.6802 14.8915C16.8192 14.8915 20.1737 11.7825 20.1737 7.94653C20.1737 4.11054 16.8192 1 12.6802 1C8.5415 1 5.18541 4.11054 5.18541 7.94653C5.17143 11.7695 8.50268 14.8787 12.6275 14.8915C12.6461 14.8915 12.6632 14.8915 12.6802 14.8915Z" stroke="#130F26" stroke-width="1.5" stroke-linecap="round" stroke-linejoin="round"/>
</svg>
