<svg width="23" height="23" viewBox="0 0 23 23" fill="none" xmlns="http://www.w3.org/2000/svg">
<path d="M19.6431 3.49834V1.60978C19.6431 0.702309 18.3355 0 16.796 0H6.19071C4.65052 0 3.35688 0.702309 3.35688 1.60978V3.49834C2.41795 3.59534 1.56694 3.884 0.953131 4.3137C0.339318 4.74339 0.00188449 5.28669 0 5.8483V14.8005C0.00183555 15.3621 0.339257 15.9054 0.953078 16.3351C1.5669 16.7648 2.41792 17.0535 3.35688 17.1504V21.3463C3.36634 21.7859 3.66879 22.2057 4.19895 22.5151C4.72912 22.8244 5.44449 22.9986 6.19071 23H16.796C18.3362 23 19.6431 22.2538 19.6431 21.3463V17.1504C20.5821 17.0535 21.4331 16.7648 22.0469 16.3351C22.6607 15.9054 22.9982 15.3621 23 14.8005V5.8483C22.9981 5.28669 22.6607 4.74339 22.0469 4.3137C21.4331 3.884 20.5821 3.59534 19.6431 3.49834V3.49834ZM16.5349 1.75796V3.44268H6.46424V1.75796H16.5349ZM6.46424 21.242V17.2134H16.5349V21.242H6.46424ZM20.0161 14.8005C20.0161 15.1337 19.5156 15.3822 18.9628 15.3822H4.02241C3.75372 15.3861 3.49336 15.3271 3.29848 15.218C3.10361 15.1089 2.99015 14.9588 2.98302 14.8005V5.8483C2.98683 5.7703 3.01678 5.69351 3.07116 5.62235C3.12553 5.5512 3.20326 5.48708 3.29986 5.43369C3.39647 5.3803 3.51005 5.33869 3.63405 5.31126C3.75806 5.28384 3.89004 5.27114 4.02241 5.27389H18.9628C19.5156 5.27389 20.0161 5.5151 20.0161 5.8483V14.8005Z" fill="white"/>
<path d="M19.6431 3.49834V1.60978C19.6431 0.702309 18.3355 0 16.796 0H6.19071C4.65052 0 3.35688 0.702309 3.35688 1.60978V3.49834C2.41795 3.59534 1.56694 3.884 0.953131 4.3137C0.339318 4.74339 0.00188449 5.28669 0 5.8483V14.8005C0.00183555 15.3621 0.339257 15.9054 0.953078 16.3351C1.5669 16.7648 2.41792 17.0535 3.35688 17.1504V21.3463C3.36634 21.7859 3.66879 22.2057 4.19895 22.5151C4.72912 22.8244 5.44449 22.9986 6.19071 23H16.796C18.3362 23 19.6431 22.2538 19.6431 21.3463V17.1504C20.5821 17.0535 21.4331 16.7648 22.0469 16.3351C22.6607 15.9054 22.9982 15.3621 23 14.8005V5.8483C22.9981 5.28669 22.6607 4.74339 22.0469 4.3137C21.4331 3.884 20.5821 3.59534 19.6431 3.49834V3.49834ZM16.5349 1.75796V3.44268H6.46424V1.75796H16.5349ZM6.46424 21.242V17.2134H16.5349V21.242H6.46424ZM20.0161 14.8005C20.0161 15.1337 19.5156 15.3822 18.9628 15.3822H4.02241C3.75372 15.3861 3.49336 15.3271 3.29848 15.218C3.10361 15.1089 2.99015 14.9588 2.98302 14.8005V5.8483C2.98683 5.7703 3.01678 5.69351 3.07116 5.62235C3.12553 5.5512 3.20326 5.48708 3.29986 5.43369C3.39647 5.3803 3.51005 5.33869 3.63405 5.31126C3.75806 5.28384 3.89004 5.27114 4.02241 5.27389H18.9628C19.5156 5.27389 20.0161 5.5151 20.0161 5.8483V14.8005Z" fill="white"/>
<path d="M19.6431 3.49834V1.60978C19.6431 0.702309 18.3355 0 16.796 0H6.19071C4.65052 0 3.35688 0.702309 3.35688 1.60978V3.49834C2.41795 3.59534 1.56694 3.884 0.953131 4.3137C0.339318 4.74339 0.00188449 5.28669 0 5.8483V14.8005C0.00183555 15.3621 0.339257 15.9054 0.953078 16.3351C1.5669 16.7648 2.41792 17.0535 3.35688 17.1504V21.3463C3.36634 21.7859 3.66879 22.2057 4.19895 22.5151C4.72912 22.8244 5.44449 22.9986 6.19071 23H16.796C18.3362 23 19.6431 22.2538 19.6431 21.3463V17.1504C20.5821 17.0535 21.4331 16.7648 22.0469 16.3351C22.6607 15.9054 22.9982 15.3621 23 14.8005V5.8483C22.9981 5.28669 22.6607 4.74339 22.0469 4.3137C21.4331 3.884 20.5821 3.59534 19.6431 3.49834V3.49834ZM16.5349 1.75796V3.44268H6.46424V1.75796H16.5349ZM6.46424 21.242V17.2134H16.5349V21.242H6.46424ZM20.0161 14.8005C20.0161 15.1337 19.5156 15.3822 18.9628 15.3822H4.02241C3.75372 15.3861 3.49336 15.3271 3.29848 15.218C3.10361 15.1089 2.99015 14.9588 2.98302 14.8005V5.8483C2.98683 5.7703 3.01678 5.69351 3.07116 5.62235C3.12553 5.5512 3.20326 5.48708 3.29986 5.43369C3.39647 5.3803 3.51005 5.33869 3.63405 5.31126C3.75806 5.28384 3.89004 5.27114 4.02241 5.27389H18.9628C19.5156 5.27389 20.0161 5.5151 20.0161 5.8483V14.8005Z" fill="white"/>
<path d="M19.6431 3.49834V1.60978C19.6431 0.702309 18.3355 0 16.796 0H6.19071C4.65052 0 3.35688 0.702309 3.35688 1.60978V3.49834C2.41795 3.59534 1.56694 3.884 0.953131 4.3137C0.339318 4.74339 0.00188449 5.28669 0 5.8483V14.8005C0.00183555 15.3621 0.339257 15.9054 0.953078 16.3351C1.5669 16.7648 2.41792 17.0535 3.35688 17.1504V21.3463C3.36634 21.7859 3.66879 22.2057 4.19895 22.5151C4.72912 22.8244 5.44449 22.9986 6.19071 23H16.796C18.3362 23 19.6431 22.2538 19.6431 21.3463V17.1504C20.5821 17.0535 21.4331 16.7648 22.0469 16.3351C22.6607 15.9054 22.9982 15.3621 23 14.8005V5.8483C22.9981 5.28669 22.6607 4.74339 22.0469 4.3137C21.4331 3.884 20.5821 3.59534 19.6431 3.49834V3.49834ZM16.5349 1.75796V3.44268H6.46424V1.75796H16.5349ZM6.46424 21.242V17.2134H16.5349V21.242H6.46424ZM20.0161 14.8005C20.0161 15.1337 19.5156 15.3822 18.9628 15.3822H4.02241C3.75372 15.3861 3.49336 15.3271 3.29848 15.218C3.10361 15.1089 2.99015 14.9588 2.98302 14.8005V5.8483C2.98683 5.7703 3.01678 5.69351 3.07116 5.62235C3.12553 5.5512 3.20326 5.48708 3.29986 5.43369C3.39647 5.3803 3.51005 5.33869 3.63405 5.31126C3.75806 5.28384 3.89004 5.27114 4.02241 5.27389H18.9628C19.5156 5.27389 20.0161 5.5151 20.0161 5.8483V14.8005Z" fill="white"/>
<path d="M19.6431 3.49834V1.60978C19.6431 0.702309 18.3355 0 16.796 0H6.19071C4.65052 0 3.35688 0.702309 3.35688 1.60978V3.49834C2.41795 3.59534 1.56694 3.884 0.953131 4.3137C0.339318 4.74339 0.00188449 5.28669 0 5.8483V14.8005C0.00183555 15.3621 0.339257 15.9054 0.953078 16.3351C1.5669 16.7648 2.41792 17.0535 3.35688 17.1504V21.3463C3.36634 21.7859 3.66879 22.2057 4.19895 22.5151C4.72912 22.8244 5.44449 22.9986 6.19071 23H16.796C18.3362 23 19.6431 22.2538 19.6431 21.3463V17.1504C20.5821 17.0535 21.4331 16.7648 22.0469 16.3351C22.6607 15.9054 22.9982 15.3621 23 14.8005V5.8483C22.9981 5.28669 22.6607 4.74339 22.0469 4.3137C21.4331 3.884 20.5821 3.59534 19.6431 3.49834V3.49834ZM16.5349 1.75796V3.44268H6.46424V1.75796H16.5349ZM6.46424 21.242V17.2134H16.5349V21.242H6.46424ZM20.0161 14.8005C20.0161 15.1337 19.5156 15.3822 18.9628 15.3822H4.02241C3.75372 15.3861 3.49336 15.3271 3.29848 15.218C3.10361 15.1089 2.99015 14.9588 2.98302 14.8005V5.8483C2.98683 5.7703 3.01678 5.69351 3.07116 5.62235C3.12553 5.5512 3.20326 5.48708 3.29986 5.43369C3.39647 5.3803 3.51005 5.33869 3.63405 5.31126C3.75806 5.28384 3.89004 5.27114 4.02241 5.27389H18.9628C19.5156 5.27389 20.0161 5.5151 20.0161 5.8483V14.8005Z" fill="white"/>
</svg>
