<svg width="30" height="20" viewBox="0 0 30 20" fill="none" xmlns="http://www.w3.org/2000/svg">
<path d="M24.1286 6.51276C23.7785 6.51276 23.4354 6.54829 23.102 6.61613L22.3816 3.76419L21.8165 1.43584H24.1286C24.7921 1.43584 25.0892 1.88464 25.0892 2.32935C25.0892 2.5821 24.9928 2.81986 24.8178 2.99867C24.5787 3.24303 24.2069 3.37224 23.7426 3.37224V4.80794C24.7224 4.80794 25.32 4.40724 25.6488 4.07114C26.0876 3.62263 26.3392 2.98776 26.3392 2.32928C26.3392 1.71178 26.1281 1.13456 25.7447 0.703851C25.3349 0.243423 24.776 0 24.1286 0H20.1704L20.9566 3.23965H11.5518L11.2347 2.26338H13.3177V0.82768H8.28375V2.26338H9.90063L10.4223 3.87007L8.52125 7.23951C7.72475 6.77485 6.82431 6.51255 5.87144 6.51255C2.63394 6.51276 0 9.53792 0 13.2563C0 16.9747 2.63394 19.9999 5.87138 19.9999C8.89769 19.9999 11.3963 17.3563 11.7094 13.9742H12.4897C12.7474 14.8044 13.4384 15.4005 14.2487 15.4005C15.2781 15.4005 16.1155 14.4387 16.1155 13.2563C16.1155 12.8495 16.0163 12.4688 15.8443 12.1444L21.4822 5.35595L21.9018 7.01705C19.7654 8.02663 18.2573 10.4428 18.2573 13.2564C18.2573 16.9748 20.8912 20 24.1286 20C27.3661 20 30 16.9748 30 13.2563C30 9.53785 27.3661 6.51276 24.1286 6.51276ZM20.3197 4.6755L14.8716 11.2353C14.6767 11.1559 14.4671 11.1122 14.2486 11.1122C14.2019 11.1122 14.1557 11.1148 14.1099 11.1187L12.0178 4.6755H20.3197V4.6755ZM10.9663 5.54589L12.965 11.7016C12.7539 11.9317 12.5893 12.2174 12.4897 12.5385H11.7094C11.5412 10.7213 10.7421 9.11762 9.56913 8.02233L10.9663 5.54589ZM10.4493 12.5385H7.02119L8.88412 9.2365C9.71875 10.0629 10.2938 11.2247 10.4493 12.5385ZM5.87138 18.5643C3.32313 18.5643 1.25 16.1831 1.25 13.2563C1.25 10.3295 3.32313 7.94846 5.87138 7.94846C6.57375 7.94846 7.23962 8.13015 7.83631 8.45354L4.72156 13.9742H10.4492C10.1431 16.5625 8.2075 18.5643 5.87138 18.5643ZM14.2487 13.9648C13.9086 13.9648 13.6318 13.647 13.6318 13.2563C13.6318 12.8657 13.9086 12.5479 14.2487 12.5479C14.5888 12.5479 14.8655 12.8657 14.8655 13.2563C14.8655 13.647 14.5888 13.9648 14.2487 13.9648ZM24.1286 18.5643C21.5804 18.5643 19.5073 16.1831 19.5073 13.2564C19.5073 11.0964 20.6371 9.23499 22.2529 8.40716L23.5284 13.4564L24.7289 13.0564L23.4531 8.00581C23.6737 7.96849 23.8991 7.94853 24.1287 7.94853C26.6769 7.94853 28.7501 10.3296 28.7501 13.2564C28.7501 16.1831 26.6769 18.5643 24.1286 18.5643Z" fill="#3B9CF7"/>
</svg>
