<svg width="36" height="36" viewBox="0 0 36 36" fill="none" xmlns="http://www.w3.org/2000/svg">
<path d="M34.1467 14H30.7787C30.2373 14 29.7913 13.702 29.584 13.202C29.3767 12.702 29.482 12.1753 29.864 11.7927L32.2453 9.412C32.5953 9.062 32.788 8.596 32.788 8.10133C32.788 7.606 32.5953 7.14067 32.2453 6.79L29.21 3.75467C28.51 3.05467 27.2893 3.05333 26.588 3.75467L24.2073 6.13533C23.8247 6.51733 23.2967 6.624 22.798 6.416C22.298 6.20867 22 5.76267 22 5.22133V1.85333C22 0.831333 21.1687 0 20.1467 0H15.8533C14.8313 0 14 0.831333 14 1.85333V5.22133C14 5.76267 13.702 6.20867 13.202 6.416C12.7033 6.62467 12.1753 6.51733 11.7927 6.13533L9.412 3.75467C8.71067 3.05333 7.49 3.05467 6.79 3.75467L3.75467 6.79C3.40467 7.14 3.212 7.606 3.212 8.10133C3.212 8.596 3.40467 9.06133 3.75467 9.412L6.136 11.7927C6.518 12.1753 6.62267 12.702 6.416 13.202C6.20933 13.702 5.76267 14 5.22133 14H1.85333C0.831333 14 0 14.8313 0 15.8533V20.146C0 21.1687 0.831333 22 1.85333 22H5.22133C5.76267 22 6.20867 22.298 6.416 22.798C6.62333 23.298 6.518 23.8247 6.136 24.2073L3.75467 26.588C3.40467 26.938 3.212 27.404 3.212 27.8987C3.212 28.394 3.40467 28.8593 3.75467 29.21L6.79 32.2453C7.49067 32.946 8.71067 32.9473 9.412 32.2453L11.7927 29.864C12.1753 29.482 12.7013 29.3767 13.202 29.584C13.702 29.7913 14 30.2373 14 30.7787V34.1467C14 35.1687 14.8313 36 15.8533 36H20.146C21.168 36 21.9993 35.1687 21.9993 34.1467V30.7787C21.9993 30.2373 22.2973 29.7913 22.7973 29.584C23.298 29.376 23.824 29.482 24.2067 29.864L26.5873 32.2453C27.2887 32.9467 28.5093 32.9453 29.2093 32.2453L32.2447 29.21C32.5947 28.86 32.7873 28.394 32.7873 27.8987C32.7873 27.404 32.5947 26.9387 32.2447 26.588L29.8633 24.2073C29.4813 23.8247 29.3767 23.298 29.5833 22.798C29.79 22.298 30.2373 22 30.7787 22H34.1467C35.1687 22 36 21.1687 36 20.1467V15.8533C36 14.8313 35.1687 14 34.1467 14ZM34.6667 20.1467C34.6667 20.4333 34.4333 20.6667 34.1467 20.6667H30.7787C29.696 20.6667 28.766 21.288 28.352 22.288C27.9373 23.288 28.1553 24.3853 28.9213 25.1507L31.3027 27.5313C31.506 27.7347 31.506 28.0647 31.3027 28.2673L28.2673 31.3027C28.0647 31.5053 27.7347 31.5067 27.5313 31.3027L25.1507 28.9213C24.3847 28.1553 23.288 27.9387 22.288 28.352C21.288 28.766 20.6667 29.696 20.6667 30.7787V34.1467C20.6667 34.4333 20.4333 34.6667 20.1467 34.6667H15.8533C15.5667 34.6667 15.3333 34.4333 15.3333 34.1467V30.7787C15.3333 29.696 14.712 28.766 13.712 28.352C13.3767 28.2127 13.0313 28.1447 12.69 28.1447C12.014 28.1447 11.3587 28.4113 10.8493 28.9207L8.46867 31.302C8.26467 31.506 7.93467 31.5047 7.73267 31.302L4.69733 28.2667C4.494 28.0633 4.494 27.7333 4.69733 27.5307L7.07867 25.15C7.844 24.3847 8.06267 23.2873 7.648 22.2873C7.234 21.288 6.304 20.6667 5.22133 20.6667H1.85333C1.56667 20.6667 1.33333 20.4333 1.33333 20.1467V15.8533C1.33333 15.5667 1.56667 15.3333 1.85333 15.3333H5.22133C6.304 15.3333 7.234 14.712 7.648 13.712C8.06267 12.712 7.84467 11.6147 7.07867 10.8493L4.69733 8.46867C4.494 8.26533 4.494 7.93533 4.69733 7.73267L7.73267 4.69733C7.93533 4.494 8.26533 4.494 8.46867 4.69733L10.8493 7.078C11.614 7.84267 12.7107 8.062 13.712 7.64733C14.712 7.234 15.3333 6.304 15.3333 5.22133V1.85333C15.3333 1.56667 15.5667 1.33333 15.8533 1.33333H20.146C20.4333 1.33333 20.6667 1.56667 20.6667 1.85333V5.22133C20.6667 6.304 21.288 7.234 22.288 7.648C23.2893 8.06267 24.3853 7.844 25.1507 7.07867L27.5313 4.698C27.7353 4.49467 28.0653 4.49467 28.2673 4.698L31.3027 7.73333C31.506 7.93667 31.506 8.26667 31.3027 8.46933L28.9213 10.85C28.156 11.6153 27.9373 12.7127 28.352 13.7127C28.766 14.7127 29.696 15.334 30.7787 15.334H34.1467C34.4333 15.3333 34.6667 15.5667 34.6667 15.8533V20.1467Z" fill="black"/>
<path d="M18 12C14.6913 12 12 14.6913 12 18C12 21.3087 14.6913 24 18 24C21.3087 24 24 21.3087 24 18C24 14.6913 21.3087 12 18 12ZM18 22.6667C15.4273 22.6667 13.3333 20.5727 13.3333 18C13.3333 15.4273 15.4273 13.3333 18 13.3333C20.5727 13.3333 22.6667 15.4273 22.6667 18C22.6667 20.5727 20.5727 22.6667 18 22.6667Z" fill="black"/>
</svg>
