<svg width="20" height="18" viewBox="0 0 20 18" fill="none" xmlns="http://www.w3.org/2000/svg">
<path d="M19.6296 2.33333H8.71667L7.34519 0.173056C7.2763 0.0649445 7.16074 0 7.03704 0H0.37037C0.165556 0 0 0.173833 0 0.388889V2.72222V4.27778V15.5567C0 16.6285 0.82963 17.5 1.84963 17.5H18.1504C19.1704 17.5 20 16.6285 20 15.5567V4.27778V2.72222C20 2.50717 19.8344 2.33333 19.6296 2.33333ZM19.2593 3.88889H0.740741V3.11111H8.51852H19.2593V3.88889ZM0.740741 0.777778H6.83889L7.82667 2.33333H0.740741V0.777778ZM19.2593 15.5567C19.2593 16.1992 18.7619 16.7222 18.1504 16.7222H1.84963C1.23815 16.7222 0.740741 16.1992 0.740741 15.5567V4.66667H19.2593V15.5567Z" fill="#3B9CF6"/>
<path d="M9.73816 14.6638C9.81038 14.7396 9.9052 14.7778 10 14.7778C10.0948 14.7778 10.1896 14.7396 10.2619 14.6638L12.357 12.4639C12.5019 12.3118 12.5019 12.066 12.357 11.914C12.2122 11.7619 11.9782 11.7619 11.8333 11.914L10.3704 13.4501V6.61108H9.62964V13.4501L8.16668 11.914C8.02186 11.7619 7.78779 11.7619 7.64297 11.914C7.49816 12.066 7.49816 12.3118 7.64297 12.4639L9.73816 14.6638Z" fill="#3B9CF6"/>
</svg>
