<svg width="23" height="18" viewBox="0 0 23 18" fill="none" xmlns="http://www.w3.org/2000/svg">
<path d="M10.4354 17.6078C10.7215 17.8596 11.106 18 11.5094 18C11.908 18 12.302 17.8555 12.5834 17.6078L21.0114 10.189C22.2918 9.06193 22.9953 7.5633 23 5.97385C23 4.38028 22.2965 2.88165 21.0161 1.75459C19.7357 0.627523 18.0379 0.00825683 16.2276 0.00825683C14.45 0.00825683 12.7757 0.606881 11.5047 1.69679C10.229 0.602752 8.54996 0 6.76774 0C4.96207 0 3.26427 0.619266 1.98389 1.7422C0.703507 2.86927 0 4.36789 0 5.96147C0 7.55092 0.708197 9.04954 1.98858 10.1766L10.4354 17.6078ZM2.79996 2.46055C3.85991 1.52752 5.27161 1.01147 6.77243 1.01147C8.27325 1.01147 9.68964 1.52752 10.7543 2.46468L11.1013 2.77018C11.2092 2.86514 11.3546 2.91881 11.5094 2.91881C11.6595 2.91881 11.8095 2.86514 11.9174 2.77018L12.2551 2.47294C13.3197 1.53578 14.7314 1.01972 16.2369 1.01972C17.7378 1.01972 19.1495 1.53578 20.2094 2.46881C21.2741 3.40596 21.8556 4.64862 21.8556 5.96973C21.8556 7.29083 21.2694 8.53349 20.2047 9.47064L11.772 16.8936C11.636 17.0133 11.3874 17.0133 11.2467 16.8936L2.80465 9.46239C1.74001 8.52523 1.15375 7.28257 1.15375 5.96147C1.15375 4.64037 1.74001 3.39771 2.79996 2.46055Z" fill="#3B9CF6"/>
</svg>
