<svg width="322" height="131" viewBox="0 0 322 131" fill="none" xmlns="http://www.w3.org/2000/svg">
<rect width="322" height="131" rx="20" fill="#D9D9D9"/>
<rect x="159" y="38" width="4" height="40" fill="#2888E1"/>
<rect x="123" y="53" width="4" height="25" fill="#2888E1"/>
<rect x="195" y="53" width="4" height="25" fill="#2888E1"/>
<rect x="231" y="53" width="4" height="25" fill="#2888E1"/>
<rect x="267" y="53" width="4" height="25" fill="#2888E1"/>
<rect x="87" y="53" width="4" height="25" fill="#2888E1"/>
<rect x="51" y="53" width="4" height="25" fill="#2888E1"/>
<rect x="27" y="61" width="4" height="17" fill="#5DC808"/>
<rect x="39" y="61" width="4" height="17" fill="#5DC808"/>
<rect x="63" y="61" width="4" height="17" fill="#5DC808"/>
<rect x="75" y="61" width="4" height="17" fill="#5DC808"/>
<rect x="99" y="61" width="4" height="17" fill="#5DC808"/>
<rect x="111" y="61" width="4" height="17" fill="#5DC808"/>
<rect x="135" y="61" width="4" height="17" fill="#5DC808"/>
<rect x="147" y="61" width="4" height="17" fill="#5DC808"/>
<rect x="171" y="61" width="4" height="17" fill="#5DC808"/>
<rect x="183" y="61" width="4" height="17" fill="#5DC808"/>
<rect x="207" y="61" width="4" height="17" fill="#5DC808"/>
<rect x="219" y="61" width="4" height="17" fill="#5DC808"/>
<rect x="243" y="61" width="4" height="17" fill="#5DC808"/>
<rect x="255" y="61" width="4" height="17" fill="#5DC808"/>
<rect x="279" y="61" width="4" height="17" fill="#5DC808"/>
<rect x="291" y="61" width="4" height="17" fill="#5DC808"/>
</svg>
